<?xml version="1.0" encoding="UTF-8" standalone="no"?>
<!DOCTYPE svg PUBLIC "-//W3C//DTD SVG 1.1//EN"
 "http://www.w3.org/Graphics/SVG/1.1/DTD/svg11.dtd">
<!-- Generated by graphviz version 12.2.1 (20241206.2353)
 -->
<!-- Title: egraph Pages: 1 -->
<svg width="760pt" height="220pt"
 viewBox="0.00 0.00 760.00 220.00" xmlns="http://www.w3.org/2000/svg" xmlns:xlink="http://www.w3.org/1999/xlink">
<g id="graph0" class="graph" transform="scale(1 1) rotate(0) translate(4 216)">
<title>egraph</title>
<polygon fill="white" stroke="none" points="-4,4 -4,-216 756,-216 756,4 -4,4"/>
<g id="clust1" class="cluster">
<title>cluster_11</title>
<polygon fill="none" stroke="black" stroke-dasharray="1,5" points="108,-152 108,-204 180,-204 180,-152 108,-152"/>
</g>
<g id="clust2" class="cluster">
<title>cluster_6</title>
<polygon fill="none" stroke="black" stroke-dasharray="1,5" points="96,-80 96,-132 400,-132 400,-80 96,-80"/>
</g>
<g id="clust3" class="cluster">
<title>cluster_20</title>
<polygon fill="none" stroke="black" stroke-dasharray="1,5" points="8,-152 8,-204 100,-204 100,-152 8,-152"/>
</g>
<g id="clust4" class="cluster">
<title>cluster_1</title>
<polygon fill="none" stroke="black" stroke-dasharray="1,5" points="519,-152 519,-204 593,-204 593,-152 519,-152"/>
</g>
<g id="clust5" class="cluster">
<title>cluster_4</title>
<polygon fill="none" stroke="black" stroke-dasharray="1,5" points="440,-80 440,-132 658,-132 658,-80 440,-80"/>
</g>
<g id="clust6" class="cluster">
<title>cluster_15</title>
<polygon fill="none" stroke="black" stroke-dasharray="1,5" points="346,-152 346,-204 438,-204 438,-152 346,-152"/>
</g>
<g id="clust7" class="cluster">
<title>cluster_10</title>
<polygon fill="none" stroke="black" stroke-dasharray="1,5" points="188,-152 188,-204 270,-204 270,-152 188,-152"/>
</g>
<g id="clust8" class="cluster">
<title>cluster_2</title>
<polygon fill="none" stroke="black" stroke-dasharray="1,5" points="443,-8 443,-60 513,-60 513,-8 443,-8"/>
</g>
<g id="clust9" class="cluster">
<title>cluster_5</title>
<polygon fill="none" stroke="black" stroke-dasharray="1,5" points="637,-152 637,-204 707,-204 707,-152 637,-152"/>
</g>
<g id="clust10" class="cluster">
<title>cluster_19</title>
<polygon fill="none" stroke="black" stroke-dasharray="1,5" points="666,-80 666,-132 744,-132 744,-80 666,-80"/>
</g>
<!-- 11.0 -->
<g id="node1" class="node">
<title>11.0</title>
<ellipse fill="none" stroke="black" cx="144" cy="-178" rx="27.81" ry="18"/>
<text text-anchor="middle" x="144" y="-172.95" font-family="Times,serif" font-size="14.00">.unit</text>
</g>
<!-- 6.0 -->
<g id="node2" class="node">
<title>6.0</title>
<ellipse fill="none" stroke="black" cx="131" cy="-106" rx="27" ry="18"/>
<text text-anchor="middle" x="131" y="-100.95" font-family="Times,serif" font-size="14.00">y</text>
</g>
<!-- 11.0&#45;&gt;6.0 -->
<g id="edge1" class="edge">
<title>11.0&#45;&gt;6.0</title>
<path fill="none" stroke="black" d="M140.79,-159.7C139.42,-152.32 137.78,-143.52 136.25,-135.25"/>
<polygon fill="black" stroke="black" points="142.1,-141.84 135.65,-133.44 135.45,-144.03 142.1,-141.84"/>
</g>
<!-- 6.1 -->
<g id="node3" class="node">
<title>6.1</title>
<ellipse fill="none" stroke="black" cx="203" cy="-106" rx="27" ry="18"/>
<text text-anchor="middle" x="203" y="-100.95" font-family="Times,serif" font-size="14.00">.inv</text>
</g>
<!-- 2.0 -->
<g id="node13" class="node">
<title>2.0</title>
<ellipse fill="none" stroke="black" cx="478" cy="-34" rx="27" ry="18"/>
<text text-anchor="middle" x="478" y="-28.95" font-family="Times,serif" font-size="14.00">x</text>
</g>
<!-- 6.1&#45;&gt;2.0 -->
<g id="edge2" class="edge">
<title>6.1&#45;&gt;2.0</title>
<path fill="none" stroke="black" d="M219.35,-91.48C225.23,-87.22 232.12,-82.88 239,-80 306.1,-51.9 391.14,-41.24 439.57,-37.28"/>
<polygon fill="black" stroke="black" points="432.67,-42.6 441.53,-36.79 430.98,-35.8 432.67,-42.6"/>
</g>
<!-- 6.2 -->
<g id="node4" class="node">
<title>6.2</title>
<ellipse fill="none" stroke="black" cx="275" cy="-106" rx="27" ry="18"/>
<text text-anchor="middle" x="275" y="-100.95" font-family="Times,serif" font-size="14.00">.op</text>
</g>
<!-- 6.2&#45;&gt;6.2 -->
<g id="edge4" class="edge">
<title>6.2:se&#45;&gt;6.2:n</title>
<path fill="none" stroke="black" d="M290.02,-90.98C305.02,-72.98 320,-72.98 320,-107.65 320,-136.63 299.04,-141.39 283.4,-131.65"/>
<polygon fill="black" stroke="black" points="285.97,-129.26 276.14,-125.32 281.37,-134.53 285.97,-129.26"/>
</g>
<!-- 4.0 -->
<g id="node8" class="node">
<title>4.0</title>
<ellipse fill="none" stroke="black" cx="477" cy="-106" rx="29.34" ry="18"/>
<text text-anchor="middle" x="477" y="-100.95" font-family="Times,serif" font-size="14.00">.zero</text>
</g>
<!-- 6.2&#45;&gt;4.0 -->
<g id="edge3" class="edge">
<title>6.2:sw&#45;&gt;4.0</title>
<path fill="none" stroke="black" d="M259.98,-88C207.35,-35.37 364.05,-74.34 439.22,-95.15"/>
<polygon fill="black" stroke="black" points="430.3,-89.07 439.09,-94.98 435.9,-84.88 430.3,-89.07"/>
</g>
<!-- 6.3 -->
<g id="node5" class="node">
<title>6.3</title>
<ellipse fill="none" stroke="black" cx="365" cy="-106" rx="27" ry="18"/>
<text text-anchor="middle" x="365" y="-100.95" font-family="Times,serif" font-size="14.00">.op</text>
</g>
<!-- 6.3&#45;&gt;6.3 -->
<g id="edge5" class="edge">
<title>6.3:sw&#45;&gt;6.3:n</title>
<path fill="none" stroke="black" d="M349.98,-90.98C334.98,-72.98 320,-72.98 320,-107.65 320,-136.63 340.96,-141.39 356.6,-131.65"/>
<polygon fill="black" stroke="black" points="358.63,-134.53 363.86,-125.32 354.03,-129.26 358.63,-134.53"/>
</g>
<!-- 6.3&#45;&gt;4.0 -->
<g id="edge6" class="edge">
<title>6.3:se&#45;&gt;4.0</title>
<path fill="none" stroke="black" d="M381.02,-90.98C393.56,-74.7 412.06,-72.97 429.41,-77.17"/>
<polygon fill="black" stroke="black" points="427.97,-80.39 438.56,-80.02 430.05,-73.7 427.97,-80.39"/>
</g>
<!-- 20.0 -->
<g id="node6" class="node">
<title>20.0</title>
<ellipse fill="none" stroke="black" cx="54" cy="-178" rx="37.53" ry="18"/>
<text text-anchor="middle" x="54" y="-172.95" font-family="Times,serif" font-size="14.00">.comm</text>
</g>
<!-- 20.0&#45;&gt;6.0 -->
<g id="edge8" class="edge">
<title>20.0:se&#45;&gt;6.0</title>
<path fill="none" stroke="black" d="M70.35,-160.65C77.49,-153.51 85.4,-146.15 93.08,-139.26"/>
<polygon fill="black" stroke="black" points="94.98,-142.25 100.15,-133 90.34,-137.01 94.98,-142.25"/>
</g>
<!-- 20.0&#45;&gt;2.0 -->
<g id="edge7" class="edge">
<title>20.0:sw&#45;&gt;2.0</title>
<path fill="none" stroke="black" d="M37.65,-160.65C-83.51,-39.49 311.44,-33.28 439.37,-34.34"/>
<polygon fill="black" stroke="black" points="431.38,-37.59 441.49,-34.41 431.61,-30.59 431.38,-37.59"/>
</g>
<!-- 1.0 -->
<g id="node7" class="node">
<title>1.0</title>
<ellipse fill="none" stroke="black" cx="556" cy="-178" rx="29.34" ry="18"/>
<text text-anchor="middle" x="556" y="-172.95" font-family="Times,serif" font-size="14.00">.zero</text>
</g>
<!-- 4.1 -->
<g id="node9" class="node">
<title>4.1</title>
<ellipse fill="none" stroke="black" cx="551" cy="-106" rx="27" ry="18"/>
<text text-anchor="middle" x="551" y="-100.95" font-family="Times,serif" font-size="14.00">.op</text>
</g>
<!-- 4.1&#45;&gt;6.0 -->
<g id="edge10" class="edge">
<title>4.1:se&#45;&gt;6.0</title>
<path fill="none" stroke="black" d="M566.02,-88C662.85,8.84 404.74,-40.41 245.58,-77.47"/>
<polygon fill="black" stroke="black" points="245.19,-73.97 236.25,-79.66 246.78,-80.78 245.19,-73.97"/>
</g>
<!-- 4.1&#45;&gt;2.0 -->
<g id="edge9" class="edge">
<title>4.1:sw&#45;&gt;2.0</title>
<path fill="none" stroke="black" d="M535.98,-89.98C528.66,-82.66 520.68,-74.94 513.05,-67.67"/>
<polygon fill="black" stroke="black" points="515.72,-65.37 506.05,-61.04 510.91,-70.46 515.72,-65.37"/>
</g>
<!-- 4.2 -->
<g id="node10" class="node">
<title>4.2</title>
<ellipse fill="none" stroke="black" cx="623" cy="-106" rx="27" ry="18"/>
<text text-anchor="middle" x="623" y="-100.95" font-family="Times,serif" font-size="14.00">.op</text>
</g>
<!-- 4.2&#45;&gt;6.0 -->
<g id="edge11" class="edge">
<title>4.2:sw&#45;&gt;6.0</title>
<path fill="none" stroke="black" d="M607.98,-88C603.59,-83.61 598.73,-83.97 594,-88 574.96,-104.25 600.87,-131.82 578,-142 557.6,-151.09 197.07,-149.39 176,-142 172.97,-140.94 169.99,-139.57 167.1,-138"/>
<polygon fill="black" stroke="black" points="169.25,-135.22 158.93,-132.81 165.49,-141.13 169.25,-135.22"/>
</g>
<!-- 4.2&#45;&gt;2.0 -->
<g id="edge12" class="edge">
<title>4.2:se&#45;&gt;2.0</title>
<path fill="none" stroke="black" d="M638.02,-89.98C676.49,-51.51 575.51,-39.92 516.74,-36.46"/>
<polygon fill="black" stroke="black" points="524.93,-34.24 514.49,-36.1 523.8,-41.15 524.93,-34.24"/>
</g>
<!-- 15.0 -->
<g id="node11" class="node">
<title>15.0</title>
<ellipse fill="none" stroke="black" cx="392" cy="-178" rx="37.53" ry="18"/>
<text text-anchor="middle" x="392" y="-172.95" font-family="Times,serif" font-size="14.00">.comm</text>
</g>
<!-- 15.0&#45;&gt;6.0 -->
<g id="edge13" class="edge">
<title>15.0:sw&#45;&gt;6.0</title>
<path fill="none" stroke="black" d="M375.65,-160.65C344.95,-129.95 229.16,-146.18 177.77,-135.12"/>
<polygon fill="black" stroke="black" points="179.03,-131.84 168.45,-132.42 177.09,-138.56 179.03,-131.84"/>
</g>
<!-- 15.0&#45;&gt;4.0 -->
<g id="edge14" class="edge">
<title>15.0:se&#45;&gt;4.0</title>
<path fill="none" stroke="black" d="M408.35,-160.65C415.79,-153.21 424.25,-145.86 432.63,-139.09"/>
<polygon fill="black" stroke="black" points="434.76,-141.87 440.45,-132.93 430.43,-136.37 434.76,-141.87"/>
</g>
<!-- 10.0 -->
<g id="node12" class="node">
<title>10.0</title>
<ellipse fill="none" stroke="black" cx="229" cy="-178" rx="33.44" ry="18"/>
<text text-anchor="middle" x="229" y="-172.95" font-family="Times,serif" font-size="14.00">.assoc</text>
</g>
<!-- 10.0&#45;&gt;6.0 -->
<g id="edge15" class="edge">
<title>10.0:sw&#45;&gt;6.0</title>
<path fill="none" stroke="black" d="M212.87,-160.87C198.9,-146.9 190.5,-145.36 176.84,-137.93"/>
<polygon fill="black" stroke="black" points="178.67,-134.94 168.3,-132.78 175.06,-140.94 178.67,-134.94"/>
</g>
<!-- 10.0&#45;&gt;6.0 -->
<g id="edge17" class="edge">
<title>10.0:se&#45;&gt;6.0</title>
<path fill="none" stroke="black" d="M245.13,-160.87C268.75,-137.25 212.86,-146.68 177.6,-136.18"/>
<polygon fill="black" stroke="black" points="178.99,-132.97 168.41,-132.56 176.43,-139.48 178.99,-132.97"/>
</g>
<!-- 10.0&#45;&gt;2.0 -->
<g id="edge16" class="edge">
<title>10.0:s&#45;&gt;2.0</title>
<path fill="none" stroke="black" d="M229,-158.68C229,-119.34 371.21,-153.73 404,-132 426.62,-117.01 419.55,-101.58 436,-80 438.9,-76.19 442.08,-72.34 445.34,-68.57"/>
<polygon fill="black" stroke="black" points="447.94,-70.91 452.01,-61.13 442.73,-66.24 447.94,-70.91"/>
</g>
<!-- 5.0 -->
<g id="node14" class="node">
<title>5.0</title>
<ellipse fill="none" stroke="black" cx="672" cy="-178" rx="27" ry="18"/>
<text text-anchor="middle" x="672" y="-172.95" font-family="Times,serif" font-size="14.00">_</text>
</g>
<!-- 19.0 -->
<g id="node15" class="node">
<title>19.0</title>
<ellipse fill="none" stroke="black" cx="705" cy="-106" rx="31.39" ry="18"/>
<text text-anchor="middle" x="705" y="-100.95" font-family="Times,serif" font-size="14.00">.isinv</text>
</g>
<!-- 19.0&#45;&gt;2.0 -->
<g id="edge18" class="edge">
<title>19.0&#45;&gt;2.0</title>
<path fill="none" stroke="black" d="M685.05,-91.8C677.99,-87.57 669.85,-83.16 662,-80 613.08,-60.27 553.22,-47.6 515.34,-40.89"/>
<polygon fill="black" stroke="black" points="525,-40.83 514.41,-40.53 522.51,-47.37 525,-40.83"/>
</g>
</g>
</svg>
